/* XPM */
static char *_fd43054ffb04e069751b071a47025c6TGfA5kHywt6rE59u[] = {
/* columns rows colors chars-per-pixel */
"64 64 11 1 ",
"  c #733F31",
". c #7C4536",
"X c #8B6E67",
"o c #8F503F",
"O c #977B73",
"+ c #9B5643",
"@ c #A2867D",
"# c #A9948D",
"$ c #AD9B95",
"% c #B1624D",
"& c #C66851",
/* pixels */
"%%&&&&%%%%%%%+OX&&&&%%%%%%&&%%%%&&&&&&%%%%%%%+XO&&&&&&%%%%%%%%%%",
"+++++++++++++oXX.++++++++++++++++++++++++++++oOX.o++++++++++++++",
"++++++++++++ooXO.o++++++++++++++++++++++++++ooOX.o++++++++++++++",
"+++++++++++oooOO.o+++++++++++++++++++++++++oo.XO.oo+++++++++++++",
"++++++++++++o.@X.o++++++++++++++++++++++++++o.@@..o+++++++++++++",
"++++++oo+++o. OO..o+o+++++++++++++++++o+ooo+o.O@.o++++++++++++++",
"++++++++o+oo. @O. ooo++++o++oo++++o+oo++++oo. @@..o++++++++++o++",
"oo+oo++ooo+o. #@. oooo++o+ooo+o++oooo+++oo+o. @@..o+o+o++++oo++o",
"oooo+oooooo...#@  ooooo++oo++++oo+ooooooooooo @@ .o++ooo+o++oooo",
"oooooo.oo.oo. @#  o.oooooo+ooooo+ooooooooooo. @@ .oooo+oo+oooooo",
".o...oo..oo.. #$ ....oooooooooooooooo..oo.o...@@ ..ooooooooooo..",
".oo.........  $$ ..oo...oo..oo.oo..ooo........#@ .o..ooooo..o.o.",
" ..   .   .   $$  .  o....   .....oo..     .. #@  .    o...o... ",
"    ....      #$    ..   ....    .    ..      $@     ...    ..  ",
"XXOXXXOX@@###@$#@@@@@OXOOXXXXOOXXOXXXOOOO@O@##@#$#@OXXO@@O@OXXO@",
"XOXXOO@OO#@@######@OOXXXXXOOOXOOXXOOO@OXO@##$#$#$@#@O@@OOXXXXXXO",
"&&&&%%%%&&&&&&%%%%%+++%%&&&&&+OX&&&&%%%%&&&&%%%%++++%%&&&&%%%+XX",
"+%%+++++++++++++++++++++++++%+XO+&++++++++++++++++++++++++++%+XO",
".++++++++++++++++++++++++++++.XO.++++++++++++++++++++++++++++.O@",
".o+o+++++++++++++++++++++++o+.O@.o++++++++++++++++++++++++++o.O@",
"..o+++++++++++++++++++oo+o+oo.O@.o+o++++++++++++++++++++++++o.@@",
".oo+++++++++++++++oooo++ooo+o.OX.oo++++o++++++++++++++++o+oo..@@",
".o++++++++++++o++++o+ooooooo..@@..ooo+o+oo+++++o+++++o+ooo+...@@",
" .o+o++++++++o+oo+++ooooooooo.#@ ..ooooo++++ooo+++oo+oo++ooo..@@",
" .oo+++++o+++++++ooooooooooo..#@. ooooooooo++oooo++oo+ooooo.. @#",
"...o++o+o+oo++oooooooooo..o.. ##. .oooooooooooooooooooo+ooo.. @@",
" .oooooo+o++oooooooo..o.o.... @#  o...ooo..oooooo..oooooo..o  #@",
" oooo...o..+o..oooo.o........ #$ ..o.oo...o...oo.o..oo....... #@",
" ..ooo.     ..oo.o..     ..   $$  ..   .   ....    ... .  ..  ##",
"   ...   ... ..........       ##     .....   .  ..    ..      #$",
"@@@OXXOOXXOXXXXXXXXXOO@O@@@#@#$####@@@OXX@@OOXXXXXOOOXXXXO@##$$#",
"@@OXOOXXOXXXXOOXOXOOOOOXO@@@###$@@@##@@@OOXXXXOXXXXXOOOO@OO@@##$",
"%%%%++%%%%%%%+X@&&&&%%%%%%&&&&%%+++%%%%%&&&&&+XO&&&&%%&&&&&&%%%%",
"++++++++++++%+XOo++++++++++++++++++++++++++++.XO+&&%%+++++++++++",
"+++++++++++++oXXo+++++++++++++++++++++++++++o.O@o+++++++++++++++",
"+++++++++++++oOXoo++++++++++++++++++++++++++o.O@o+o+++++++++++++",
"++++++++++++oo@@o+o+++++++++++++++++++++++o+o.@@oo++++++++++++++",
"+++++++++++o+.X@ooo+o++++++++++++++++++o++ooo.@@.o+o++++++++++++",
"++++++++++++o.O@oooooo++++++++++++++++++oooo. #@..oo++++++++++++",
"+o++++++o++o..#@oooo+++++++++++++++++++ooo.o..@@o.o+o++++++++oo+",
"o++++++++oooo.@@.ooooo+ooo+o+oo++++oo+oo+oo.. @#..o+++o+++oo++oo",
"oo++o+oo++o.o.@#.o..ooo++ooooo+o++o+oooooooo. @#.ooo+o+oo+++ooo+",
"oooo+ooooooo. @#...o.oooo.oooooooo..oooo..oo. $#.oooooo+oooooo+o",
"ooooooo..o.o. $# . ...o....oo......oo....oo.. #$..o..oooo...ooo.",
".. o...    .  #@  ........  ..    ....    ..  #$....o...  .   ..",
"  ..     .    $$     .... .    ....    ...    $$...         ....",
"XOXXO@@@@@@@#$$##@O@XOXXXXXXOXXXXXOOO@XXO@#@@#$###@@OOOXOXXXXOOX",
"OOO@@XO@@@@#####@OX@@@OOOXXXXOOXXOXXXXO@@X@@#$##$@@@O@@XOOOXOXXO",
"+%%%%%&&&&%%%%%%%%++++%%%%%%%+OX+&%%%%&&&&%%%%++++++%%%%%%%%%+X@",
"+%+++++++++++++++++++++++++++oXOo++++++++++++++++++++++++++++oXO",
".++++++++++++++++++++++++++++oOXoo+++++++++++++++++++++++++o+oO@",
".o+++++++++++++++++++++++++++o@Xoo++++++++++++++++++++++++++ooO@",
".ooo++++++++++++++++++++++++o.@O.oo+++++++++++++++++++++++o+o.@@",
".oo+ooo+++++++++++++++++++++ooX@.o+o+++++++++++++++++++++++oo.@@",
"..oooo+oo++++++++++++++++++oo.@@..oo++++++++++++++++++++++ooo.@@",
". .ooooo++o++++++++++++++o+oo.@#..o+o++++++++++++++++++++++oo.@@",
"  .oooooooooo+++++++++++++ooo.#@.oooooo++++o++++++++oo+o+++o. #@",
" .oooo.ooooo+oo+o+++oo++ooooo.#$.ooooo+o+oo+o++++ooo+oo++oo.. #@",
" .ooo.oooooo..oooo+o++ooo.oo. $# .o.ooooo..ooooooo..oooooooo. ##",
" ..o.....oo..o.oooooooo..oo.  $$ .oo..oooo...ooo...oo..ooo... $#",
"  .. ....   ....oo.  ..    .. ##  ...    .....      ..  ....  #$",
"    ..    .. ..... .      ..  $$    ....   .     ..    ...    ##",
"@@@OXXOOXXXXOOXXXXXOOOXXO@@@@##$##@@@OX@@OOXXXXXXOX@XO@##$@#$$$#",
"OX@@OOXOOXXXXXXXXXXXXOO@@X@@#$##@@@@@@OOXXXOXXXOO@XXO@@@#$#@###$"
};
