/* XPM */
static char *_b5a505688604e8f8cbd163335f7f03432RbFAaIgxXjnYOo[] = {
/* columns rows colors chars-per-pixel */
"64 64 252 2 ",
"   c #1F5979",
".  c #21556F",
"X  c #385567",
"o  c #274D7B",
"O  c #255579",
"+  c #385779",
"@  c #24667C",
"#  c #3A667B",
"$  c #47677B",
"%  c #556375",
"&  c #576A77",
"*  c #255684",
"=  c #365C8E",
"-  c #275994",
";  c #1F6F85",
":  c #236D83",
">  c #2A668A",
",  c #3A6888",
"<  c #23738A",
"1  c #297288",
"2  c #3A748B",
"3  c #276598",
"4  c #2A659A",
"5  c #2B6A9D",
"6  c #3A6997",
"7  c #257A95",
"8  c #257C9C",
"9  c #387797",
"0  c #255EA3",
"q  c #266CA2",
"w  c #2868A7",
"e  c #2A6CA4",
"r  c #366DA6",
"t  c #2975A7",
"y  c #257BA3",
"u  c #2C72AC",
"i  c #3978A9",
"p  c #2A6CB4",
"a  c #326EB4",
"s  c #2B77B6",
"d  c #387AB7",
"f  c #456989",
"g  c #556C85",
"h  c #47748B",
"j  c #557787",
"k  c #456B95",
"l  c #477898",
"z  c #567898",
"x  c #667589",
"c  c #687C97",
"v  c #757F92",
"b  c #456DA3",
"n  c #4778A7",
"m  c #4373AB",
"M  c #567CA5",
"N  c #4779B5",
"B  c #457CBD",
"V  c #517DB5",
"C  c #687EA4",
"Z  c #3376C0",
"A  c #3A7DC2",
"S  c #467CC1",
"D  c #25829D",
"F  c #3A8299",
"G  c #2683A6",
"H  c #3A83A7",
"J  c #2A8CB6",
"K  c #3A85B9",
"L  c #2E91BB",
"P  c #3494BC",
"I  c #3A95BA",
"U  c #51808E",
"Y  c #48829C",
"T  c #538399",
"R  c #678598",
"E  c #768398",
"W  c #4C84A3",
"Q  c #4889A9",
"!  c #5687A7",
"~  c #5483AA",
"^  c #4B91AE",
"/  c #5B94A9",
"(  c #4988B7",
")  c #4384BD",
"_  c #588AB7",
"`  c #4393B5",
"'  c #4B93B4",
"]  c #4697BA",
"[  c #4599BD",
"{  c #5394B3",
"}  c #5895BA",
"|  c #6383A3",
" . c #6A86A7",
".. c #648BAD",
"X. c #758BA7",
"o. c #6A98AB",
"O. c #7893AB",
"+. c #658CB6",
"@. c #728EB2",
"#. c #6796B9",
"$. c #7696B4",
"%. c #4AA1BE",
"&. c #58A2BE",
"*. c #6AA2B8",
"=. c #79A5B7",
"-. c #3484C2",
";. c #3C82C2",
":. c #3D9BC3",
">. c #3B9BC5",
",. c #4385C2",
"<. c #4C84C2",
"1. c #448BC4",
"2. c #4B8BC3",
"3. c #4A8BCA",
"4. c #548AC7",
"5. c #548CC4",
"6. c #5B8DC5",
"7. c #4D92C5",
"8. c #439DC4",
"9. c #4A9EC3",
"0. c #4C94CD",
"q. c #459BCA",
"w. c #5493C4",
"e. c #5B93C4",
"r. c #5C94CA",
"t. c #5698C8",
"y. c #569ACD",
"u. c #5B9BCC",
"i. c #4E97D1",
"p. c #559AD1",
"a. c #5C9CD1",
"s. c #6796C6",
"d. c #6494CB",
"f. c #639BCD",
"g. c #6D9ACC",
"h. c #749DC6",
"j. c #739DCC",
"k. c #649DD1",
"l. c #6D9BD0",
"z. c #6B9DD2",
"x. c #4AA2C8",
"c. c #53A3C4",
"v. c #53A5CA",
"b. c #59A7C9",
"n. c #5BAACD",
"m. c #5AAFCE",
"M. c #5DA9D1",
"N. c #6CA1CC",
"B. c #64AACA",
"V. c #77A9C4",
"C. c #75A4CB",
"Z. c #7BA3CD",
"A. c #7CA9CD",
"S. c #6AB2CC",
"D. c #7AB6CB",
"F. c #64A2D2",
"G. c #6CA4D4",
"H. c #68ACD3",
"J. c #73A3D5",
"K. c #7BA5D4",
"L. c #73AAD5",
"P. c #7CABD5",
"I. c #74A6D9",
"U. c #7AA7D9",
"Y. c #7DABD9",
"T. c #68B3D3",
"R. c #6CBAD5",
"E. c #75BCD5",
"W. c #7ABAD8",
"Q. c #7EC1D7",
"!. c #7DC1DA",
"~. c #899198",
"^. c #8698AB",
"/. c #839AB3",
"(. c #889BB3",
"). c #929EB0",
"_. c #8BA2AD",
"`. c #89AAB8",
"'. c #94A3B3",
"]. c #98A8B6",
"[. c #9BABBB",
"{. c #9CB1BA",
"}. c #A2ABB9",
"|. c #A5B3BB",
" X c #839FC2",
".X c #86A7C6",
"XX c #82A6CC",
"oX c #95ADCB",
"OX c #88B7CB",
"+X c #96B8CC",
"@X c #85AAD4",
"#X c #84ACD4",
"$X c #8AADD4",
"%X c #84ADDA",
"&X c #8CB2D4",
"*X c #87BBD4",
"=X c #84B3DB",
"-X c #8CB3DA",
";X c #8CBADD",
":X c #97B7D3",
">X c #92B6DD",
",X c #93BADE",
"<X c #9CBADD",
"1X c #A6B9C6",
"2X c #A1B7D1",
"3X c #A4BCD3",
"4X c #ABBED5",
"5X c #A4BDDB",
"6X c #8DBBE1",
"7X c #95BBE2",
"8X c #9CBBE2",
"9X c #A1BDE2",
"0X c #84C4DA",
"qX c #88C4D9",
"wX c #8AC5DB",
"eX c #9CC3D3",
"rX c #9BC8D4",
"tX c #97C7DA",
"yX c #95CADD",
"uX c #A5C4D5",
"iX c #ADC3D6",
"pX c #ACC3DB",
"aX c #A8C6D8",
"sX c #ADCBDC",
"dX c #B4C6D6",
"fX c #B2C4DA",
"gX c #B2CCD9",
"hX c #B3CBDC",
"jX c #BBCBDB",
"kX c #96C9E3",
"lX c #92CDE2",
"zX c #9BCDE1",
"xX c #A8C9E2",
"cX c #B2C6E1",
"vX c #B3CBE3",
"bX c #BBCDE2",
"nX c #A7D3E5",
"mX c #B4D2E3",
"MX c #BBD4E4",
"NX c #BCD8E7",
"BX c #C2CEDC",
"VX c #C2D1DE",
"CX c #C4D5E4",
"ZX c #C9D6E4",
"AX c #C3D9E6",
"SX c #CBD9E6",
"DX c #C3D9EA",
"FX c #CDDBE9",
"GX c #D1DDE9",
"HX c #C0D7F2",
"JX c #D5E5EE",
"KX c #E0EEF3",
/* pixels */
"f 6 k h 6 , , , , = $ `.=.V.=.V.=.=.o.o.o.R @.@.@.@.@...V b M z ^.^.(.(.(.(././.O.@.& f + + + + + + f l k ~.].]._._.].].{.].{.~.",
"e e 5 q q q q q q q 9 wXlX0XlX0X0XQ.!.Q.D...K.$X$X@Xj.d.6.d.S N  X$X<X9X8X>X$X@XK.z.v r 5 r 5 w i r q u d [.aXuXuXuXiXsXdXhXhX|.",
"5 q q q q q q q e e , !.!.!.!.0XE.E.E.E.Q.@.P.%X$XK.Z.J.l.d.S N .X9X9X9X9X8X8X>X%XU.C s u p u t u d d i n [.mXsXuXuXaXhXgXgXmX].",
"> q q q q q e t u u k 0X0XlXlX0XE.Q.W.E.R.o.P.Y.Y.@X@XU.l.6.r.V oX9X9X9X8X9X8X>X%X@XR e p t s t t u u d ) {.mXsXsXxXaXaXgXjXjX].",
"> e q q q e q i i i 2 0XwXwXlX!.Q.Q.E.E.E.@.%XU.%XU.%XU.l.4.r.6.bXHX8X7X8X8X8X>X%XK.c = > 3 3 3 - 3 3 3 w [.bXhXsXsXmXgXaXdXjX{.",
"> t e u s i B Q d u 6 yX0X0X0X0XqXqX0XQ.E.@.U.U.%XU.%XJ.z.4.6.d.GXHX7X>X>X8X>X%X@Xj.c k k , * * * * * * * `.gXuXaXgXmXmXgXgXdX].",
"6 d K 7.1.;.1.1.( ( z lXzXyX0XQ.D.0XwX0XwXX.@XK.U.U.U.l.4.r.4.S 4X9X>X>X>X>X%XU.K.K.R l k z k O *   o   O '.dXuXuXaXNXAXAXMXgX].",
"l 3.i.p.p.i.i.q.0.3.l 0XyXyXwX0XQ.0XwXwXwX| s.d.l.J.l.l.r.r.k.6.<X8X>X>X>X>X%XU.g.K. .N d ( d n n 3 *   O '.iXuXaXNXAXAXZXZXZX|.",
"i 0.i.i.p.a.p.y.0.0.n S.D.0XrXrXwXwX0XqXyXR 4.<.S d.6.6.S 4.l.6.oX9X8X8X8X$Xj.s.d.j.c m N i i t w t 5 3 > ].aXuXhXNXNXNXAXCXjX|.",
"_ a.i.0.i.0.p.t.0.0.Q D.S.S.S.*XrXyXwXqXqX| 4.B S 4.S S <.S l.+.oX$X$X>X&XXXh.s.d.j.c k k 1 3 3 w q 5 5 5 ].aXsXMXDXAXMXMXAXAX|.",
"! _ ! _ ~ ( Q ' ( ( z =.o.o.o.o._.`.`.=.=.g c z C z z z z M @.c v C ^.^.^.X.| C | | g f f f & f f f f f f ~.].[.{.{.{.[.{.{.|.~.",
"/ %.&.B.S.D.0X!.D.D.o.N.V.C.C.OX&X&X&XOXA. .j.j.j.j.d.4.4.4.j.h.b a p S N n M n N S 6 1 2 Y F < # 1 F F F l ] [ 9.9.8.8.P P P H ",
"Q %.%.%.&.m.&.*.S.S.o.C.C.P.A.#X&X&X&X&X@XC j.l.j.l.d.6.4.6.4.@.0 a w w r n M N B S 9 9 1 : @ @ F F D G D H I P L P L L L P x.' ",
"/ %.%.%.%.%.&.m.&.m./ *XP.*X=XXX$X&X&X&X@XC XX Xj.l.d.6.4.B B M - 0 4 w w a V ) ,.3.k : @ @ ; < D G D D D H P P P L >.P x.x.m.{ ",
"o.S.E.R.m.R.m.m.m.S.#.;X=X=X*X&X&X&X#XP.K.C j.j.j.j.g.6.<.S S M r a a d m p A 3.3.0.b : < 7 D D D D 7 7 7 D J P I :.:.8.x.9.x.^ ",
"*.S.D.0X!.!.!.!.!.!.*.;X;X;X;X;XwX;X&XP.L.C d.j.j.j.j.d.6.S S b a d d ;.A 3.A Z A 4.l 8 G G D D D D 7 ; < i :.P P I :.:.9.v.n./ ",
"*.Q.!.!.!.!.!.!.!.!.&.wX7X7X6X;X6X6X6X=XP.! d.j.j.j.j.j.d.S B m N A A A A ;.3.3.3.4.l D D D D D 7 < ; ; ; H [ x.v.v.x.v.m.M.v.^ ",
"*.!.lXlX!.!.R.m.!.R./ *X=X=X=X=X=X=XY.L.P.| d.g.j.K.j.j.h.d.B N m A A A A A A ;.3.y.l D 7 < 1 : @ ; @ D ; Q 8.8.8.v.n.M.v.8.x.^ ",
"*.nXlXJXnX!.R.R.R.T./ P.L.W.Y.W.Y.Y.L.L.I.| j.j.K.$XXXK.j.6.6.V b u u p p u p p s Z k 7 7 1 < < < < < ; : Q x.x.v.v.m.m.v.b.9.^ ",
"S.Q.!.0XlX!.!.R.!.W.o.W.=XY.L.Y.Y.=XW.G.G...J.U.U.%XXXj.j.l.d.V b m w 4 w w 4 w w w $ : < < < 1 < ; ; @ ; H :.8.x.v.v.i.:.:.>.Q ",
"OXlX!.!.R.!.R.!.!.R.o.D.=X=X=X*X;X=XP.S.L...U.%XI.U.U.U.U.I.d.( _ <._ d i w 4 0 - 3 $ 1 9 2 1 @ @ ; : ; : i :.:.x.x.x.:.P P I H ",
"& T h U ^ Y Y F U j % O.O.^._._._._.^.^.^.x +.! +._ ....~ ~ ~ z ! .._ ~ ! W W W ! n j M z z z z T T R | R R =.$.*.o.o.o.$.*.=.R ",
"# 7 j Q ^ ` %.>.P F j D.OXD.eXgXuXeX*X+X*X@.G.G.G.L.L.G.a.y.y.e.B.S.S.b.t.%.t.9.c.c.! r.) d S 1.2.1.,.2.) `.zXzXyXyXrXrX0XwXOX=.",
"# U Y Y ^ ` I %.>.H h D.V.OX+XeXuXrXeXrX*X@.G.F.G.F.G.k.k.a.y.w.b.H.B.B.c.c.c.c.c.b.W 5.2.2.,.1.e.5.1.,.) `.lXyXtXyXzXrXrXtXrX`.",
"# U Y Y ^ ^ ^ ] %.>.l D.D.OXOXeXuXuXrXeX*XO.L.L.F.F.F.F.F.G.F.} *.H.B.b.n.B.B.H.H.b.! w.w.1.,.) ,.,.2.,.( =.qXyXtXtXzXzXzXzXzX`.",
"# h Y Y Y H ` ] [ I Y eXOXD.OXeXuXaXuXeXwXX.L.=X=XL.M.a.t.f.N.#.B.n.M.n.b.n.H.R.W.T.! r.5.3.,.;.A ,.,.,.) =.qXqXtXlXtXzXzXzXzX`.",
"# 1 < 7 D Q ^ ^ ` x.W tXOXD.D.eXaXiXuXrXeXR 7.u.L.L.G.G.F.k.G.#.} n.n.v.n.H.T.T.wXnXo.5.5.5.2.,.A K ;.d d o.D.E.D.wXyXyXzXzXzX`.",
"# 2 1 9 Q ' H I I x.Q rX*X*X*XeXgXgXaXeXeX .w.w.w.e.G.L.L.F.G.#.c.n.b.M.v.H.M.T.nXKX! 1.5.5.2.,.;.S ,.d K o.D.D.E.0XwXtXzXlXzX`.",
"h W Q ^ #.{ K P :.x.Q qX*X*XtXtXgXgXgXrXeXO.N.7.2.7.w.N.P.H.G.} &.n.n.b.v.H.M.H.mXW.! ) 5.5.4.2.,.,.,.,.2.o.S.E.qXQ.Q.qXyXlXzX{.",
"F I OXdXV.] P :.>.>.W wX*XqXwXsXMXMXgXuXeXO.P.H.y.w.2.5.N.P.L.#.{ b.b.n.m.m.m.M.E.B.T ;.e.r.w.2.,.,.2.2.w.o.E.E.Q.qXQ.Q.wXzXzX`.",
"Q x.*XNXm.x.:.>.>.I Y 0X*X*XtXnXmXNXMXgXeXX.*.A.L.b.t.y.u.L.U.h.{ c.b.S.b.n.M.T.B.v.W 1.w.r.r.5.,.) 1.3.' *.Q.!.Q.Q.Q.Q.0XlXnX`.",
"9 [ x.c.[ [ [ I ] ` Y `.OXOXOX+XrXgXiXuX|.R #.#.$.s._ _ _ } V...T ' { { { } } B.&.*.z 5._ s._ 6.( ( N V W o.D.D.`.qXQ.`.0X`.rX_.",
"+ o o o = o = = = m k d m i i d N K i u r ! j.s.s.s.s.6._ _ +.M Q ( ( { _ } s.s.e.w.z , = , k k k k f k k X.'. X(.oX.X X.X.X Xv ",
"k b = - - - - - - m k s J -.-.-.K d s t e M J.G.F.f.g.z.g.f.g._ ( 7.7.t.y.7.F.H.F.p.n 6 r 6 6 b k b b n b @.@X$X@X$X@X-X-X$X%X/.",
"= a m N b b 0 = - 0 = t a u d s u 5 5 i n ! I.L.k.r.f.a.a.k.z.s.w.w.t.t.t.7.u.L.G.M.n p m r r r m b n M b O.$X$X@XXXXX$X-X@X%X/.",
"- a S S a S b b = - + i n ( ~ i r 9 n M +...U.J.k.k.k.k.f.k.k._ w.n.F.u.} 7.F.G.G.F.l w p r N m m n N a 0 /.9X5X<X@X-X-X$XXX@X@.",
"= b V S S S m b k = = b i n n n b n ! oXDX+.I.J.G.z.k.f.k.k.z.s.7.u.M.f.7.t.G.L.G.y.6 * - 0 r b m d w w w $.9X8X8X>X-X-X-X@X$X/.",
"b S b V V S S N b k + - 3 3 5 k n n +XJXDX@.G.G.z.J.J.J.z.k.k.d.( p.y.k.M.k.G.H.N.7.2 o o - - 0 m m m i r $.7X$X@X-X$X-X$X%X$X/.",
"b S S S N V S S N - o - 3 > > 3 3 i N ( P.+.J.f.a.g.L.J.G.J.z.+.) i.y.b.t.k.G.u.0.7.k * o o * = k m m m d $.$X@X@X$X-X%X%X$X-X/.",
"= b N S N m p Z a - o 3 - 3 3 4 3 q u s 1...Y.P.J.G.J.J.I.I.I.s.( i.u.y.u.M.G.F.7.1.9 = = o * f k k r r a @.$X%X$X-X>X%X$X@X@X@.",
"k b b V V b 0 a p 0 o - 4 4 4 4 5 q t s -.n g.K.#XP.G.J.J.K.I.#.( t.b.7.u.F.F.M.t.y.l b z = o f g k 6 b r @.$X$X@X-X>X$X$XXXj.X.",
"b b b V S N a 0 Z p + - r 6 e 4 5 4 q s -.M 5.s.@X%XP.G.L.U.%X#.( y.t.0.a.F.F.M.i.0.b d n b f f k k = = b /.$X$X@X@X$X@X@XXXXXX.",
"v C E C C C C C C  .& z z z z z z z z M M g  .R X./.O.O.O.O.O.v z ! ! ~ ~ ..~ ~ W M g X.X.v v v v v v c x v }.).^.^.^.).^.^.(.v ",
"}.cXZXZXbXcXcX9XxXxX).J.J.I.U.U.U.K.U.J.k.X.-XvXKX7X$X-X<XcX5XoXs.e.w.6.e.t.r.r.r.r.@.bXDXGXGXSXVXcX4X4X2X}.4XjX4X4X4XbXZXCXbX}.",
"oXDXNXMXcXbXvXxXxXkX(.J.J.J.U.U.%XK.U.U.l.X.7XxX,X>X$X%X7X4X5X'.s.d.r.e.f.f.f.r.r.t. .mXDXGXGXSXCXcX4X4X2X).4X4X5X4XbXZXFXFXCX[.",
"1XDXDXmXHX9XnXvXxXtX(.j.J.I.U.U.l.K.K.K.J.O.8X>X>X&X@X@X$X5X3X.X} u.f.G.G.J.L.z.k.L.$.vXNXFXFXSXCXfXfXfX4X'.4X4X4X4XHXZXGXZXbX[.",
"1XSXDXMXMXnXvXxX8XtX/.z.l.J.U.U.U.J.U.U.l.^.5X>X@XXXK.XXXXoX2X'.s.u.k.k.J.G.I.U.I.Y.$.mXbXCXGXGXZXbXfX4X4X'.4X4X4XCXZXFXGXZX4X2X",
"1XGXDXNXMXvXxX7X:X>X/.l.k.d.l.J.J.l.l.J.J.^.<X$X@XXXXXh.h.$XoX'._ r.a.J.F.%XmXKXU.J.O.vXvXHXGXGXZXCXbXfX4X'.HX4X4XCXFXFXZXbX4X}.",
"|.SXAXAXMXaX+X:X*X:X^.J.J.z.z.z.J.J.K.K.J.(.5X$X$XXXXXh.h.XXoX).6.y.f.F.a.G.DX>XG.J./.xXsXMXZXZXSXZXCXbXdX].4X4XBXBXFXGXCXbXcXoX",
"|.AXAXNXhX:X+X+X+XwX^.Z.K.K.U.I.J.K.U.K.d.^.5X$X.XXXj.h.h..XoXoX#.f.k.F.F.Y.>XL.G.=X/.pXaXhXVXZXSXSXCXbXBX).BXdXdXbXZXGXCX4X4X].",
"{.hXMXgXdXuX+X+XOXOX^.s.j.j.@XK.@XK.j.g.j./.9XoX$XXXh.j.h.XX+X[.#.k.z.u.f.G.f.d.G.Y.(.iX5XpXbXZXSXZXBXjXjX}.dXBXBXBXBXFXCXcX9X1X",
"`.sXjXgXdX:XOXOXoX+X~.) 6.d.g.j.P.K.J.j.j.^.5X>X$XXXXXh.j.A.:XoX} r.t.f.f.G.f.g.I.U.^.4X:X3XdXBXVXBXjXfX4X].jXBXBXZXbX4X4X4XcX}.",
"{.aXhXjXdX+X+X+X+X+X^.S S 4.6.d.K.J.K.K.K.X.:X$X$XXXXX@XA.$X<XoX_ +.d.f.G.N.G.xXG.L.^.3X<X3XiXjXBXBXjXdXiX'.4XjXBXBXBXjX4X3X4X|.",
"T ! T z j $ f h $ h $ l M _ ~ ! M ! M l 6 g | | | C M T ....@.R X X X X X X X X X + $ o./ ' ! ! ! T T T j ~.}.[.}.}.).'.).).).~.",
"' :.I I G 7 y y y G H i.a.F.k.w.w.7.K s s M ' 5.e.w.( w.N.L.W..X$ , + + @ O . . . . , m.m.m.x.x.x.8.] { { [.hXbX4X4X4X9X5X3X2X).",
"H >.J G y y y y y y 9 y.k.u.u.w.;.K s d 7.W 2.7.w.w.w.r.L.Y.6XV.j Q l j T , O @ # . # b.m.m.x.x.8.] ] ] { '.hXbXbX4X5X9X4XcX9X).",
"i J J G t 8 8 G H y 9 M.u.t.2.K s s 7.y.w.W ' 2.} w.u.H.=X=XkX.XY H Q H H 9 9 Y l l h m.S.m.v.x.%.[ ] ^ ' (.fXfX4X5X2X2X9X9XbX[.",
"H J G y y y y ` ( ' Y F.t.) J K ) y.F.t.2.~ w.} r.e.L.P.6X7XkX.XW H K H J K H i H H Y S.T.B.x.>.I ` ` ` ` (.4X4X4X4X2X3X4XCXBXoX",
"9 y y y 8 y Q ( ` { $.2.;.d d d 0.k.u.1.p...N.s.V.f.N.L.=X;X;XV.T Q i ` Q K I H i H Y m.T.n.I L L ] ` I J (.5X4X4X2X2X9X4XHXBX}.",
"9 y y y y 9 ` ` ' 3X1XK K K ,.p.M.u.i.0.0...V.h.A.C.N.A.XXA.A.$.h l l l i W Q K ` N.! T.v.x.x.%.[ %.] ] J (.4X4X4X3X9X4XHXHX4X}.",
", 8 t 9 H ^ ' { [ sXo.) K u.f.M.i.7.i.0.1...N.C.A.C.V.A.A.A.C.$.$ h z j h l l F Q ( Q m.v.I P 8.c.[ 9.[ J ).4X4X4X4X4XHX4XCX4XoX",
"2 y H ' ' ' ' #X.XmXl f.a.vXk.y.0.0.0.7.0.o.C.A.A.C.A.XXA.C.V.@.j R O.U h h h h l Y Y m.m.x.x.x.8.8.8.x.I (.4XfXbX9X4X9XCX9X4X}.",
", G G K ` ' ^ { ' ' l DX=Xa.a.3.i.0.7.1.p.+.K.#XXXC.A.A.A.C.Z.o.z T T l 2 h f h f l Y m.x.x.8.:.I :.x.I 1.).4X4X4X9X4XbXCX9XbXoX",
"$ z h l h l z Y T W h _ _ W i n W i n i _ R #.=..X.X.X=.$.@.@.R f h h , f h , $ # 2 h { ^ ` ` Q ` ` Q ^ n E [.[.).).'.[.'.'.[.~."
};
