/* XPM */
static char *_74dd00a48914b5cb84f62b002efa162AjN7puM6Trlt4BBC[] = {
/* columns rows colors chars-per-pixel */
"64 64 7 1 ",
"  c #906590",
". c #9D6F9C",
"X c #A472A3",
"o c #AC7BAC",
"O c #B286B2",
"+ c #B58DB5",
"@ c #C7A8C7",
/* pixels */
"@@@@@@@@@@@@@@@@@@@@@@@@@@@@@@@o@@@@@@@@@@@@@@@@@@@@@@@@@@@@@@@o",
"@+++++++++++++++++++++++++++++o @+++++++++++++++++++++++++++++o ",
"@+OOOOOOOOOOOOOOOOOOOOOOOOOOOO. @+OOOOOOOOOOOOOOOOOOOOOOOoooOo. ",
"@+OOOOOOOOOOOOOOOOOOOOOOOOOOOO. @+OOOOOOOOOOOOOOOOOOOOOOOOoOoo. ",
"@+OOOOOOOOOOOOOOOOOOOOOOOOOOOO. @+OOOOOOOOOOOOOOOOOOOOOOOOOooo. ",
"@+OOOOOOOOOOOOOOOOOOOOOOOOOOOO. @+OOOOOOOOOOOOOOOOOOOOOOOOOOoO. ",
"@+OOOOOOOOOOOOOOOOOOOOOOOOOOoO. @+OOOOOOOOOOOOOOOOOOOOOOOOOooo. ",
"@+OOOOOOOOOOOOOOOOOOOOOOOOOOOo. @+OOOOOOOOOOOOOOOOOOOOOOOOoOoo. ",
"@+OOOOOOOOOOOOOOOOOOOOOOOOOOoo. @+OOOOOOOOOOOOOOOOOOOOOOoOoooo. ",
"@+OOOOOOOOOOoOOOOOOOOOoOOOoOoo. @+OOOOOOOOOOOOOOOOOOOOOOOooooo. ",
"@+OOoOOOOOooOoOoOOOoOoOOOooooo. @+OOOOOOOoOOOOOOOOOOOoOOoooooo. ",
"@+OoooOoOOOOooOOooOOooOOoOoooo. @+OOOOOOooOOoOOOOOoooOoOoooooo. ",
"@+oOoOoOoOOooOoOOooooOOooooooX. @+OOOOoOoOooOOOOoOOoOooooooooo. ",
"@+ooOoooOOoooooooooooooooooooX. @+OoOOOoooooOOOOOooooOooooXooo. ",
"@+oooooooooooOooooooooooooooXo. @+OOoOoooooOOOOooooooXXoXooXoo. ",
"@+ooooooooooooooOoooooXoooooXX. @+oOooooooOOoOOOooooooXXooXXoX. ",
"@+oooooooooooooOoooooooXXXoXXX. @+oooooooOoooOOoOooooXooXXXoXX. ",
"@+ooooOooooooooooooXooooXXXXXX. @+ooooooooooOoOOoooXXooXXXXXXX. ",
"@+ooooooooXoooooooooXXooXoXXXX. @+oooooooooooOOoOoooXXXXXXXXXX. ",
"@+oooooooooXooooooXooXXXoXXXXX. @+ooooooooooooOooooXXXXXXXXX.X. ",
"@+oooooooooooooXXooXXoXXXXXXX.. @+ooooooXoXooXooooooXoXXXXXXX.. ",
"@+ooooooooooooXXoXXXoXXXXXXX... @+oooooXXXXXXoooooXooXXXXXXX... ",
"@+oooooooXooXooXXXXXXXXXXX.X.X. @+ooooXoXXXXXXoooXXXXXXXXXXX.X. ",
"@+ooooooooXXXXXoXXXXXXXXXXX.XX. @+oooooXXXXXoXoXXoXXXXXXXXXXXX. ",
"@+XoXooXoXoXXXXXXXXXXXXXXXXXX.. @+oXooXXXXXoXXXXXXXXXXXXXXXXX.. ",
"@+oXXXoXXXXoXXXXXXXXXXXXXXX..X. @+ooXoXXXXXXXXXXXXXXXXXXX.XX.X. ",
"@+XXXoXXXXXXXXXXXXXXXXXX..X.X.. @+ooXXXXXXXXXXXXXXXXXXXXX...X.. ",
"@+XoXXXXXXXXXXXXXXXX.XXXX....X. @+XoXXXXXXXXXXXXXX.X.XXX.X...X. ",
"@+oXXXXXXXXXXXXX.XX.X.XX...X.X. @+oXXXXXXXXXXXXXX......XX.X.XX. ",
"@+oXXXXXXXXX..X.X.X...X.X.X.X.. @+XXXXXXXXXXX.XX.X.X..XXXX.X... ",
"@o............................. @o............................. ",
"o                               o                               ",
"@@@@@@@@@@@@@@@@@@@@@@@@@@@@@@@o@@@@@@@@@@@@@@@@@@@@@@@@@@@@@@@o",
"@+++++++++++++++++++++++++++++O @+++++++++++++++++++++++++++++o ",
"@+OOOOOOOOOOOOOOOOOOOOOOOOOOOO. @+OOOOOOOOOOOOOOOOOOOOOOOOOOOO. ",
"@+OOOOOOOOOOOOOOOOOOOOOOOOOOOo. @+OOOOOOOOOOOOOOOOOOOOOOOOOOOo. ",
"@+OOOOOOOOOOOOOOOOOOOOOOOOOoOo. @+OOOOOOOOOOOOOOOOOOOOOOOOOOOO. ",
"@+OOOOOOOOOOOOOOOOOOOOOOOOOOoo. @+OOOOOOOOOOOOOOOOOOOOOOOOOOOo. ",
"@+OOOOOOOOOOOOOOOOOOOOOOOOOOOo. @+OOOOOOOOOOOOOOOOOOOOOOOOOOoO. ",
"@+OOOOOOOOOOOOOOOOOOOOOOOOOoOo. @+OOOOOOOOOOOOOOOOOOOOOOOOOOoo. ",
"@+OOOOOOOOOOOOOOOOOOOOOOOOOOoo. @+OOOOOOOOOOOOOOOOOoOOOoOOOOoo. ",
"@+OOOOOOOOOoOOOOOOOOOOOOOoOOoo. @+OOOOOOOOOOOOOOOOOOooOoOoOooo. ",
"@+OOOOOOOoOOoOOOOOOOOOOOOOoooo. @+OOOOOOOOOOOOOOOOOOoOoooOoooo. ",
"@+OOOOOOoOOOooOOOOoOOooOoOOooo. @+OOOOOOOOOOOOOOOOOooOooOoooXo. ",
"@+OOOOoOoXooOoOoOooOOOooOooooo. @+OOOOOOOOOOOOOOOoOoooXooooooX. ",
"@+OOOOooXoooooooooOOoooooooooo. @+oOOOOOOOOoOOOOOOoOoooXooooXX. ",
"@+OOOoOXXoXooooooOoooooooooooo. @+OooOOoOooooOoOOOooXoXXoXooXX. ",
"@+oOooXXXXoooooooooooooooooooo. @+ooOoOOoooOooOoOoooXXXXXooooX. ",
"@+ooXoXXoXooooooooooooooXoooXo. @+ooooooOoOooooooOoooXXXXXXoXX. ",
"@+XoXXXXXoooooooooooooXXooXoXX. @+ooooooOOoooooooooXXoXXoooXXX. ",
"@+oXXXXXooXooooooooooXoXXooXXX. @+oooooOooooooooooooXXXXXoXXXX. ",
"@+XXXXXXoXXoXoooooooXXXXXXoXXX. @+ooooooooooooXoooooXXXXXXXXXX. ",
"@+XoXXXXXXXXoooooooooXXXXXXXXX. @+oooooooooooooXoooXoXXXXXXXXX. ",
"@+oXXXXXXXXXoooooXooXXXXXXXXXX. @+oooooooooXoXXoooXXooXXXXXXXX. ",
"@+oXXXXXXXXXXoXoooXXXXXXXXXXXX. @+ooooooooooXXooXoooXXXXXXXXXX. ",
"@+oXXXXoXXXXXXoooXXXXXXXXXXXXX. @+ooooooooXXXooXoXoXXXXXXXXXXX. ",
"@+XXXXXXoXXXXXXXXXXXXXXXXXXXXX. @+oooooXoXoXXXXoXXXoXXXXXXXX.X. ",
"@+XXXXXXXXXXXXXXXXXXXXXXXX.XX.. @+oooooXXXXXXXXXXXXXXXXXXXXXX.. ",
"@+XXXXXXXXXXXXXXXXXXXXXXXXX..X. @+ooooXoXXXXXXXXXXXXXXXXXXX.... ",
"@+XXXXXXXXXXXXXXXXXXXXXXXX..XX. @+ooXooXoXXXXXXXXXXXXXXXXXXX.X. ",
"@+oXXXXXXXXXXXXXXXXXXX.X.X..... @+oXXXXXXXXXXXX.XXXX.XXXXX..X.. ",
"@+ooXXXXXXXXXXXXXXXXXXX.X.X..X. @+XoXXXXXXXXXXXX..XXX.XX..X..X. ",
"@o............................. @o............................. ",
"o                               o                               "
};
