/* XPM */
static char *_adfb014e16e4a58c01e5b363c86c425y9No5dBll2xO20Js[] = {
/* columns rows colors chars-per-pixel */
"64 64 176 2 ",
"   c #070200",
".  c #0C0400",
"X  c #0F0800",
"o  c #120500",
"O  c #150B00",
"+  c #1C0D00",
"@  c #151101",
"#  c #1D1200",
"$  c #1F1A01",
"%  c #220F00",
"&  c #221401",
"*  c #2A1600",
"=  c #261901",
"-  c #2A1B02",
";  c #241509",
":  c #251A09",
">  c #2B1D09",
",  c #331E00",
"<  c #262106",
"1  c #2E2203",
"2  c #2E2900",
"3  c #2E2309",
"4  c #2D280A",
"5  c #352201",
"6  c #3A2602",
"7  c #362B02",
"8  c #3D2B04",
"9  c #32240A",
"0  c #35290B",
"q  c #3A2D0C",
"w  c #3D320C",
"e  c #362710",
"r  c #362B12",
"t  c #3B2D13",
"y  c #363013",
"u  c #3D3013",
"i  c #412E04",
"p  c #432F0B",
"a  c #413106",
"s  c #45320C",
"d  c #4A350B",
"f  c #443E0A",
"g  c #4C3A0E",
"h  c #53390C",
"j  c #443614",
"k  c #4A3610",
"l  c #433913",
"z  c #4D3B13",
"x  c #463919",
"c  c #4D3E1A",
"v  c #523D14",
"b  c #593F11",
"n  c #533F19",
"m  c #47410D",
"M  c #4D430C",
"N  c #4E4513",
"B  c #4F4815",
"V  c #4B401A",
"C  c #554216",
"Z  c #594E16",
"A  c #554419",
"S  c #59451A",
"D  c #554B1A",
"F  c #5C491D",
"G  c #5C5119",
"H  c #614719",
"J  c #654B1D",
"K  c #6F4F1A",
"L  c #62571F",
"P  c #6D5E1F",
"I  c #74541E",
"U  c #5A4620",
"Y  c #5E4C21",
"T  c #5A5421",
"R  c #634E21",
"E  c #684E20",
"W  c #645224",
"Q  c #6B5324",
"!  c #635820",
"~  c #66542A",
"^  c #6A562A",
"/  c #6D5A2C",
"(  c #775722",
")  c #795722",
"_  c #775823",
"`  c #7C5C26",
"'  c #705628",
"]  c #745B2D",
"[  c #7E5E28",
"{  c #6E5D30",
"}  c #715D32",
"|  c #785E30",
" . c #6D622A",
".. c #756525",
"X. c #7A6226",
"o. c #766927",
"O. c #72622E",
"+. c #7C642C",
"@. c #7A6B2B",
"#. c #7F702F",
"$. c #6B6531",
"%. c #746135",
"&. c #7D6335",
"*. c #776438",
"=. c #79663A",
"-. c #7C693D",
";. c #7E7131",
":. c #7F6C40",
">. c #82622D",
",. c #80692C",
"<. c #866631",
"1. c #896732",
"2. c #866932",
"3. c #8A6A35",
"4. c #816739",
"5. c #846B3D",
"6. c #8E6E39",
"7. c #906E3A",
"8. c #847534",
"9. c #857937",
"0. c #887837",
"q. c #8E753A",
"w. c #857839",
"e. c #8A7B3A",
"r. c #92723C",
"t. c #816D41",
"y. c #837043",
"u. c #8B7143",
"i. c #847941",
"p. c #8F7648",
"a. c #8D7B48",
"s. c #967641",
"d. c #997743",
"f. c #9B7A45",
"g. c #9B7C47",
"h. c #917749",
"j. c #92784A",
"k. c #93794B",
"l. c #947A4C",
"z. c #9E7F48",
"x. c #8F803F",
"c. c #8B8048",
"v. c #928243",
"b. c #958846",
"n. c #9E8149",
"m. c #9B8C4B",
"M. c #9F914F",
"N. c #9C8F50",
"B. c #A3824D",
"V. c #A68750",
"C. c #A78952",
"Z. c #AA8B53",
"A. c #AF8F5A",
"S. c #A39353",
"D. c #A79859",
"F. c #AA9C5A",
"G. c #AC9E5C",
"H. c #B3935E",
"J. c #B79660",
"K. c #B99763",
"L. c #B79E63",
"P. c #BB9B65",
"I. c #BD9E67",
"U. c #BD9E69",
"Y. c #BE9F68",
"T. c #ADA061",
"R. c #B2A261",
"E. c #B3A463",
"W. c #B4A463",
"Q. c #B5A364",
"!. c #B4A564",
"~. c #B8A769",
"^. c #B9A86A",
"/. c #C0A16A",
"(. c #C1A671",
"). c #C4A974",
/* pixels */
"t t t t t t t t C C n b >.` ` ` ) >.) >.) ) ) ) p t t t t t t t t j t t p t t t u u u u t t t t u u u j j k l j k k k k W I E E ",
"t t t t t t t u ~ b n b s.` ` ` >.>.>.) ) ) >.) o j t j j t j t t t t j t t j t u u u u r t t t j t t t z j j x k l j x &.W E E ",
"u t t t t t t t ^ S b n z.1.` ) >.) ) >.) ) ) ) . > t t t t t j j t j t e t t t t u j t r t t t t j j t z x j j l x j l h.' E E ",
"t t t t t t t t ^ R n b z.1.` ` >.` >.>.I ) >.) . > t j j t t t t t t t p t t t j t t t r r t t j t j t c x k j j j k k u.Q E E ",
">.V.I.I.k.k.l.k.K.z.g.d.U 6 * * * * * * 6 8 8 i , R } } | =.=.=.h.h.h.k.h.k.h.k.k.k.h.h.P.P.I.U.U.U.U.U.h.u.u.u.u.u.u.u.u.' E E ",
"` ` r.r.K ] ] ] s.3.<.>.8 n p h s d d s n z v v d k R R ~ ~ R ~ | ] ] ] ] ] | ] ] | ] ] g.q.r.q.s.s.u.s.J ] Q ] ' ' Q / ' ' E E ",
"X.` ` ` h H E E 1.| ) ) * h b n n C C n R Y H U v b U H R U U F ] Q E E E E E E E E E E q.>.` +.[ [ [ [ d H J E ~ E E E E E E E ",
">.` X.>.h H E E 1.` ) >., k n b C b b n R Y S R v b n n U U F F ] Q E E E E E E E E E E q.>.` ` +.[ [ [ h S J K E E R E E R E E ",
"D 8 5 , , 7 i i k i 8 8 7 C Y Y T R R T R U S n F Y Y R R H S F v k d p . . . . o o X X . .             o @ # & # & $ # X X . X ",
"S A d g s s h z C n z z z v D F Y U Y U R U S n F U U H U F F F v n b h O ; ; > > > > > < < : : ; ; = : 0 4 w w 7 w 7 q : : > > ",
"S D S S n n A A R F S S D U U F F F F U S U F R S U S U F F F F n b n H + > e e u t u u r y t u y y y u V l l l l l k l < r t t ",
"C S S S n C C A Y F D F F S S S F F F U S S S S F F F U S F F F v n H n O > r e u t t t t t y u y u u u V l l l x l l l 3 r r r ",
"f 7 < 2 @ @ $ @ @ @ O O O @ O @ + O O O # # & + % % & % + + + + * , , 9 s U ~ ~ A.A.Z.Z.W.W.!.Q.E.L.T.R.c.i.i.i.G.G.G.G.G.L.R.R.",
"l l w w < 4 4 4 4 < 4 4 3 < 3 4 3 3 4 3 0 9 9 0 9 9 9 9 > > 9 > j p p p A z A A z.4.,.2.x.e.e.e.w.e.e.e.L O. . .b.0.0.e.e.8.e.e.",
"l l u l 4 y y y y y y y y y r y u y r r t t t t t p j t e t t t n x k k Y c c n d.>.I I #.o.o.o.X.o.....M G P L e.8.o.o...o.o.o.",
"l l l l 4 y y y y y y y y r y y y y t t j u t t j t t j e t t t c x x x U A n c d.+.I ( #.@.o.o.....o.o.M G L L e.@.o.o.....o.o.",
"B T / / F.T.E.E.$.$.$.$.T.T.T.T.~.~.^.^.).(.^.).H.H.H.H.H.H.H.H.k.p.u.u.u.5.4.4.W g a i i 7 7 5 5 7 7 6 5 a g d d 8 6 5 5 5 6 5 ",
"D D F Y N.9.;.x.m T T T N.i.x.;.c.x.e.i.z.f.h.d.1.6.7.3.1.1.3.1.Q ] ] ] ' ] ' / C F v v C C v z g g h g g g C C S B g h g g g g ",
"D A D D b.;.o.o.2 m B D b.;. .o.@.o.o.@.2.>.[ &.I ) ` ` ) ) ) >.b H E E E E E E d C F S D S S F A D F A C S S S D S D D C C D S ",
"D D A A b.;.o.o.2 m B D b.;.o. .#.o.o.o.4.&.+.+.K ) ) ` ) ) ) ) b J E E E E E E g B D S S F F S S A S D C S A A S D S S S A S S ",
"F T W R B f 7 7 5 d C C A 8 5 5 - - * = * & % %         . . . . . o . . o X X X . + # + = & & * + # # # + # # & & # & & J R R R ",
"F F U J B D m g a d N C A A f k s s s s s s p p O ; ; ; > > > > ; ; > > > < > > 3 > 3 9 0 0 0 0 3 9 3 3 9 9 3 9 9 9 9 9 %.D F F ",
"F F D F C D D D z C C A D A S A c C C c n n n n % > e t u t u j e t e t t t t t t t t t t t t t 0 t t t r t t t t t t t -.~ F F ",
"F F F D C A S D g v C A A A C C z c c n n c n n ; 9 t e u j u u e e t t t t t t t t t t j t j j r t t t t t t t t t t t -.W F F ",
"( <.6.6.6.s.s.s.s.d.f.f.- - = - # + & & * * ; * R } -.=.*.%.%.%.K.P.P.P.A.A.A.A.-.=.-.=.t.t.-.-.K.P.K.K.U.U.P.P.U.P.H./.H.B.g.f.",
"( ( [ [ [ [ [ [ [ [ >.&.o 0 e 0 > 9 e > e e 0 0 } U R ~ W W R R Z.7.7.7.<.1.3.1.A ~ R ~ ^ ^ ^ ^ g.7.7.7.7.7.7.7.r.r.6.6.r.r.1.1.",
"( ( ( ( ) ( ) ) ) ( ( ( . > t t e e e e t t t t *.~ F F S S S D z.1.>.>.I I I ` i b S F R F F U f.1.) ) >.>.) >.>.` ` >.>.I >.>.",
"( ( ( ( ) ) ) ) ( ( ( ( . > j t e e e t j t t t *.R S F S S S S z.1.>.I K I ) I i n F F R F H Y d.1.>.) >.) ( >.` ` ` ` I >.>.I ",
"C i , , , 6 , 5 d d d d i W *.*.K.U././.| } ] / *.R F S & & = & & .   . . . .   i v S S n v v v b i , , , , , 6 , , , , h h h h ",
"C b h k d h k k F A C S h v W R C.u.r.r.p Y F J ^ ~ S F & 9 9 0 0 9 : > & ; : : ~ v S S b C b C b b g v h k h k h k h h I S H H ",
"C n b C b C C b Q R F F C S F S z.1.` X.* d n C R S S S & 9 t t u u u u e t t t =.~ F F A C S S S S C F H S H U n H n n | Q K J ",
"b S C C b n b S ^ R F F C F S F z.3.[ ` , d C C R S U F & 9 j t u t u u e t t t =.E F H C C C S S S S S n n b n H n b H | Q E K ",
"e ; + + % ; + + ; O O o o O O + & . . .   o % % = & & & A / %.%.P.P.P.P.} %.%.%.} U v v R U Y Y & + & & & & & # & & & & # O . O ",
"e e e e > > > e > > > > > > > > e 0 ; ; ; ; e > r 8 9 9 / A Y W C.r.q.r.d Y W W R R n n R F F F + 9 9 9 9 9 9 9 9 0 0 9 0 0 3 < ",
"e e t e e t e e e e e e t e r e j j t j e t t e j t j t %.T S S n.2.` [ 5 g A S n S C S R F F F + 9 r t t t t t u u u u u u u u ",
"e t e t e e t e t t t e e t r r j t t j e t t e j u t t *.R D A n.2.X.` 5 g D S b b S C Y F F F + 9 t t t t t p y u u u u u u t ",
"U } :.} k.k.k.k.l.l.l.l././././.U.U.P.P.K.K.K.K.J.H.H.A.y < # $ #     . * w g g D A D S O.O.' ' / 5.a.a.L.!.Q.L.L.L.L.L.~ ~ T ~ ",
"U U ~ ~ 4.] } ] | | | | B.r.r.r.s.r.r.r.3.7.7.6.1.5.3.3.O u 0 0 3 3 ; : C s z N F S D D O.! ! Q W ! O.O.n.r.e.q.q.q.q.9.q D U U ",
"U D A F ] Q E E E E Q Q r.>.X.` >.X.` ` ) ) ` ) ( _ _ _ X : y y t y y y ^ D C A T D D F O.Q Q L L L L L e.,.X.X.` X.X.X.- f V V ",
"F S S S ] Q E E E E E E r.>.>.` ` ` [ ` ) ` ) ` ( _ ` _   < u w q t y y ^ D C C F D D Z O.Q L L J Q J Q q.,.X.X.X.X.` +.= w V U ",
"A N g m F C z z d d d d z i 6 6 i i i i , , 5 5 8 8 w 8 P b.D.D.!.!.~.!.T.S.m.m.M.m.m.b. .! L L L L L L w 7 2 2 .       2 m D T ",
"D N N C W F A B v C M v D S z z C A v A d d g h A C C C ;.P 8.8.v.e.x.x.0.0.8.2.9.8.8.8.Z  .L L L L L L m B m m O < < 4 T m B B ",
"A B B D W F F F A S S S J F F F J F J T v n C S R U F F x.@... .#.@.o.o.......o.o.o.o.o.M G L L L  .L L m B D D $ 4 y y $.T D D ",
"B A A B T F F F A S A S Y F F F F F F F v b S S T Y F F 9.o.....#.@.o.o.....o.o.o.o.o.o.M G L L L G L L m B D D $ 4 u u $.T D D ",
"y 1 & = : & & # R Y R R H n b b n v v v C F H F S C n b G C f d a 8 7 8 8 q 8 8 6 5 5 5 5 i d d @ O O O X $ ; = + 3 e e y = & # ",
"t u 0 9 0 0 9 0 } U F F n n b n C b n b S S F F C S C S W F S D N N z z C z z N d g g g g g v C # 4 3 9 4 3 0 0 > > r e y t 9 9 ",
"u r u y u u y u -.E U S b n H n C F S S F F S F b C S S ~ T R F C D D D D F D F C C C A A S S S $ 0 u u u u u t r e r r t t t r ",
"y u t y u u u u =.~ F R n b n S C S n b R S F S A S C A W R F F A S U F F F F F C C A A S A A S & 0 u u u u u t r r r r t r t t ",
"E 5.k.a.K.P.K.K.^ n k k o % + + ; & & & = & # & - 1 1 - & % + + + + # + 5 - 9 * F Y R R R R R R C W / / / } / / :.t.y.y.l.l.l.l.",
"E E } | z.7.7.7.p U n v % > > > e e e 9 9 9 6 9 u q y q 9 0 9 9 > 9 9 9 s p q p / F F F F F F F g C F S U R U R } ^ ^ ^ &.| ] | ",
"E E E E 7.>.` ` * s n n % e e e t t t p j j t u x j j j 0 t t q r t t t V x j j %.W F F F F F F h v C C S b C b ^ R F J ' E E E ",
"R E E E 6.>.` ` * p n n % > e j x t t p t t t u x j j j q t t j e t t t c z k j %.R F F F F F F h b C C S C C n ~ J F F ' Q E E ",
"A z d d d 8 5 , 8 A ~ ~ z.K.U.U.k.k.h.h.h.h.k.h.U.U.P.K.J.J.P.L.P.U.I.I.l.p.u.u.Y c k k # # & & = > 1 3 C v c n C v h h f.r.r.r.",
"S S C C v C d h S C J E z.u.s.7.E ] ] ] ] ] ] Q z.s.r.7.6.6.6.r.r.r.r.r.E ] ] ] k U z n = 9 9 9 r 8 t t Y C n n S C n b z.>.>.>.",
"S S S S S S S S W F F F g.1.>.) h H E E E E E E s.<.] [ ) ` ` ` ` ` >.` h H E E 8 k n n - e j t j u j j ~ n n n S S S C B.2.` ` ",
"S D S S S C C S W F F J g.1.) >.h H E E E E E E s.<.[ [ ` ` ` X.>.` >.` h H E E 8 z n n - 0 t t j j u j ~ U n n S b C C B.2.>.` ",
"n x v v % % % % & # # # d , * * * 6 8 i 6 i p p d 6 5 5 5 5 6 6 7 6 6 6 h H K R 8 z n n | u.h.h.t.-.=.=.~ U n n S n S n H i , , ",
"n n v x % > > > 0 0 9 9 Y c p p p j k z k c k k S A g h z g k h C h v z E H E E 8 z n n | ' ] ] R ^ Q ~ c U n n H S n H n b d d ",
"n n n n % 9 t e j u t u ~ U n n n n n n n n n n J F S F D S F S F F F F ] Q E E 8 z n n | ' E E n S R S p z n n n n S n n H n H ",
"n n n n ; 9 t t u u u u ~ U n n n n n n n n n n F F D S F S S S F F F F ] E E E 8 k n n 4.' E E C S U R k z n n H b n S n n n b ",
"n n n n ~ | t.t.P.K.K.K.e * ; % = & * * 1 3 1 3 Y D S F F S S S F F F F v g d d z F W W R n g g v S F F + + % % - * ; % % % % + ",
"n n n n ~ Y ~ ~ z.7.7.6.o e > 9 e 9 9 9 u q q t / F S S S S D F F F F S n C v C F S J Y F F C C F S F F o > 9 9 0 e e e , e 9 > ",
"n n n n ~ R S U g.1.` `   ; t t t t t t x j j j } R S F F S F C U F F F C S S C R F F F S S S F R F F F + > e t j t t t e t t t ",
"n n n n R R R R d.<.( >.  ; t t j t t t j j u j { E D S S S F F J F D S C S S D R F F F C F F F J F F H + > t e j t p j e e e t "
};
