/* XPM */
static char *c60df1176aa44168de4cb47bd8efa3f637qwZQ8SsAhq3FyC[] = {
/* columns rows colors chars-per-pixel */
"64 64 12 1 ",
"  c #525D39",
". c #5A595A",
"X c #5A6D41",
"o c #627941",
"O c gray39",
"+ c #6A6D6A",
"@ c #787678",
"# c gray50",
"$ c #738552",
"% c #7A8F55",
"& c #8B898B",
"* c #9C999C",
/* pixels */
"&&******oo$$$$%%%$$$$%$%$$%$$%$$$o******$$$$$$$$******$$%%%%X   ",
"&*&&&***o$o$$$$%%%$$%$%%%$%%$%%o$o***&&&&&*$$$$&&***&&&$$$%%$oX ",
"*&###&&##o$$$$%%%%%$%%%$%$%%$%$%o&##&&&###########&&&###ooo$%$XX",
"*&&#&#&&#o$$$$%$%$%$%%%$%%%%%$%%o&&&##@##########&##&&##&ooo$$$ ",
"**&&&&##&oX$$$$$%$%%$%%%$%%%o$%o##@@@##@@#&###############$$XooX",
"**#&&&&&&#X$$%$%%%$%$$%%$%%%$oo&####@@@@###&####&#######&#oooXoX",
"*&&&&&#&&&oX$$%%%$$$$$%%%%%$$o#######@##&#$$##&&##&&##&&&XXooXX.",
"**&&####&#&X$$%$%$$$$$o%$%%$o#&&#&&###&&#$$$$&&&&&#####&XXoXooX.",
"*&&&&#&##&&oX$$$%$%$%o$%$$%$&&&###&&&&&&$%$%%$&########XoXX#XoX.",
"*&&&&&#####&X$$$$$%%oo$%$$$$&########&&&$$%%$$&&#&####Xo##X#@o..",
"*&&#&&&#&&##XX$o$$o%o&$$$$%$########&&$%%$$$&&&#&########@#@@X..",
"*&#&##&&&##&#X$$o%oo&&$o$$%$#@########&$$$$#&&&&&######@@#@@@XO.",
"*&###&######&#XooX&o##o&$%$$@@@#@@########@@##&######@@#@@@@#@O.",
"**############XXoX&###o#$$$o#@@@#####&#&##############@@#@@@@#..",
"**############X#XX######$$$o@#########&&&##&&###########@@@@@@O.",
"**@#############X#######o$o#############&&&&@&####@####@@@#@@@O.",
"*&@@#######o############o$#########&&#####@#@@@@###@@@###@@##@O.",
"*&@#@#@#@@Xo####@########$########&&#&#####@@@@#@@@@@#######@@O.",
"*&@@#@@@o#oX#@#@#@####@@@o@@####@@@@@@##@@@@@@@@@@@@@@@@##@@@@..",
"**@@@@##oXoX@@@@@@@#####@@@#@@####@@@@$$$$##@@@@@@@@@@@@@@@@@@O.",
"*&#@@@@#Xooo@o@@@@@@@#####@@@@@@@@@@@$$o$$$$@@#@@@@@@@@@@@@@@@O.",
"*&@@@@@@oooo@o@@@@##@@###@@@#@@@@@@#oooo$o$$$@@##@@#@@@#@@@@@@..",
"*&@@@@#@oXoo#oX@@##@##@@@###@@##@@@oXoo$oo$o$$o$oXX@@@@@###@@@..",
"**#@##@@XXooXoX@##@@#@@@@@#@@@@@##XXoooooo$oo$$o$oXXXXX@@#@#@@O.",
"**@#@###XXoXoooX@@@@@@@@@#@@@@@@@XoXXooooooooo$oXoooXX####@@@@O.",
"**@@@@##XXXXoooo@@@@@@@@@@@@@@@@XooooooooooooXooXXXX@#@#@@@@@@O.",
"*&@@@##@@XXXoXXoo#@@@@@@@@##@@@XXXoooooooooXXoXXXX@@@@@@@@@#@#..",
"&&###@@##XXXXXXXXo@@@@#@@@@###@@#XXoXoooooooXXX@@#@@@@@@@@@@##O.",
"&@@@@@@@#@X XXX XX@@@@@#@@@@@@###@@XXXooooXXXX  XX@@@@@@@@@##+O.",
"++++++++++   X XXX+++++++++++++++++++XXXXX XX  XXXXX++++++++++O.",
"O+..O.OOOO..      OO+OO++OOO..OOO..OO.   XX  XXX      +OO++OOOO.",
".............   ........................          ..............",
"%%%%%%%$%%$$************&****&..&&*******************$%$$%%%%%%%",
"%%%%$%$$$$**&**&&***&&&##&&&**.O&**&&*&&***&&**&&&&&**$$%%%%%$%%",
"%$$%%$o&&&&&#&&&&&&&########&*.O**&&&&&&&&&&&&&&&&&&&&&&$$%%%$%$",
"%%$$oo&&#&&&&##&&#&&&&#######&.O**&&&&&&&&&&&&&&&#&&&&&&&&$%$%$%",
"%%oo####&&&&&&######&&&#&#####.O*&&&&&&&&&&&&&&&&&##&&&&&&&$$$$%",
"$oo########&&&########&&&&#&##.O*&&&&&#&&#&##&&&&&#&&&&#&&&&$$%$",
"o&############&##########&&###.O*&&#&#&&####&&&#&#&&&&&&#&$o$$$$",
"o&&&#########################&..*&&####&######&&##&&&&&##oo$$o#$",
"###################@@&##&#&&&&..**#######&#######&&#&&##oo$$oo@$",
"######&##########&##@@&&&&##&#.O*&########&&&#####&&#&&#Xoooo@@$",
"####&######&###&&&&&@#@&######.O*&#######&&###@@####&####Xoo##@@",
"##&&######&#&&&&&#&#######&###..**#@####&&#&@@@#@########XoX#@&@",
"###&#####&&&&##############&&@..*&@@#@##@@@@@#############oX#&&#",
"######&&&#&&&&&#&########@&&@#..*&#@@##@@@@@###@@@##@#####X#&&#&",
"#########&&&##&&######@##@@###.O**@#@@@@@@@@@#####@@####@#######",
"####&###&&&#&##&&&####@@#@###@.O**##@@@##@#@@@##@@@####@@@######",
"#####&&&#&######@##@##X@@##@@@.O**@@@@#$$%$@@@#@@#@####&@&######",
"####&&#####@#####@@@@#o###@@+@.O*&@@@@$$%%%$@@@@#######&&#######",
"###&######@@@####@#@#Xo@@@@+@+..*&#@@$%$%%@@@@@#########&#####@@",
"###########@@@#@##@@#Xo#@@@@++.O&&#@@$%%%@@@##@@#####@######@@@#",
"#####&######@#@###@@oooX##@@@+..&*@@$%%%%@#@#@@@@#####@###@@#@##",
"##&&&##@######@@#@@Xoooo#@@@@@..*&@@%%$%@@##@@#@#@####@@@@@@@###",
"###&##@@@@@#@@@@@@XoooXo@@@@@@..*&@@%%X$#@@@##@@@#@####@@@@@@@@#",
"######@#@@#@#@@@@@XoooXo@@@@@@.O*&@@%$XX@@@@#@@@@@@@@@##@@@@@#@@",
"##@####@##@###@@@Xoooo@o@@#@@@.O*&@@%XXX$#@@@@XX@@@@@@@@#@@@####",
"#@##@@###@@@#@@@@Xoooo@X@@##@@..**@@$XXXX$@@XXX@@#@#@@@@@@@#@@##",
"@@@@#@@@@@@@@@@@Xooooo@@###@@@..**@@XXXXXXXXXX@@@@###@@@@@@@@@@@",
"@@@@@@@@@@@@@@XooXoXoX@@@#@@@+..*&@@@XXXXXXXXX@@@@##@@@@@@@@@@@@",
"@@@@@@@@@@@@XXXXXoXXX@@@@@@@++..+*&@@ XXXX XXX@@@@@@@@@@@@@XX@@@",
"++++++++++XXXXXXXXXX+++++++++..O++++++ X  XX XX+++++++++++XXXXX+",
"O++..O.O XX  XXX     O..OO......O...   XX  XX   +++OO..O XX  X O",
"OO.O..     X    XXX   .O..........   XX XX     .OO...O XX   X   "
};
