/* XPM */
static char *a172e4f861034309c0fdd9d4d5315084e4Lo2DK4yYnkg0u8[] = {
/* columns rows colors chars-per-pixel */
"64 64 14 1 ",
"  c #1B1A3C",
". c #373656",
"X c #912D11",
"o c #B11527",
"O c #BC1D24",
"+ c #BEB2B3",
"@ c #C72421",
"# c #CECECE",
"$ c #D12A1E",
"% c #DB2F1A",
"& c #DDD9D9",
"* c #E33A19",
"= c #EA4318",
"- c white",
/* pixels */
"*===========*$Oo*===========*$Oo*===========*$Oo*===========*$Oo",
"%*=======***%@oX%*=======***%@oX%*=======***%@oX%*=======***%@oX",
"%*=======***%@oX%*=======***%@oX%*=======***%@oX%*=======***%@oX",
"%*=======***%@oX%*=======***%@oX%*=======***%@oX%*=======***%@oX",
"%*=======***%@oX%*=======***%@oX%*=======***%@oX%*=======***%@oX",
"%*=======***%@oX%*=======***%@oX%*=======***%@oX%*=======***%@oX",
"%*=======***%@oX%*=======***%@oX%*=======***%@oX%*=======***%@oX",
"%*=======***%@oX%*=======***%@oX%*=======***%@oX%*=======***%@oX",
"%*=======***%@oX%*=======***%@oX%*=======***%@oX%*=======***%@oX",
"%*=======***%@oX%*=======***%@oX%*=======***%@oX%*=======***%@oX",
"%*=======***%@oX%*=======***%@oX%*=======***%@oX%*=======***%@oX",
"%*=======***%@oX%*=======***%@oX%*=======***%@oX%*=======***%@oX",
"%*=======***%@oX%*=======***%@oX%*=======***%@oX%*=======***%@oX",
"%*=======***%@oX%*=======***%@oX%*=======***%@oX%*=======***%@oX",
"%*=======***%@oX%*=======***%@oX%*=======***%@oX%*=======***%@oX",
"%*=======***%@oX%*=======***%@oX%*=======***%@oX%*=======***%@oX",
"%*=======***%@oX%*=======***%@oX%*=======***%@oX%*=======***%@oX",
"%*=======***%@oX%*=======***%@oX%*=======***%@oX%*=======***%@oX",
"%*=======***%@oX%*=======***%@oX%*=======***%@oX%*=======***%@oX",
"%*=======***%@oX%*=======***%@oX%*=======***%@oX%*=======***%@oX",
"--------&&&&--&&&&#&##&#&&&&------&&####&##&##&&####&&--&&-----#",
"--&&&&&#&#&#&&#&&#####&&#&##&&&#&#&##&####&&&#&#&##&&##&&#&&&-#+",
"-&&##&&&###&&&######&&#####&&##&&###&##&&#&#&##&&#&###&&##&&&-#+",
"-&&&#&#&#####&&####&&###&####&##&&###&&&#&##&&#####&##&##&&#&&#+",
"-&####&#  .    .. . &&&&..  ##&#&#&#.. .&#&&..  ...  .  &###&##+",
"-&&&&### ..   ..   .&&&+ .  .##&##&& .. &#&#. .. .  ... &&#&&&#+",
"-&&&#&#& . . .    . &&#+.   ..+####&   .&&## .        . #&&#&&&+",
"-&#&##&&    .. .    #&#+     ..+###&  . #&##     . .    ##&&#&#+",
"&&##&&##&+++ .. +++##&#+..    . +#&#    ##&&#+++ .. +++#&&#&&&#+",
"&&&#&#&##&##   .######&+.      ..+#&   .##&#####. . ##&&#&###&#+",
"-&&&##&&###&    ##&&#&##         .+#  . &##&#&#&    &##&&#&&&#&+",
"-&###&&##&##  . ###&&##&.   .    . +   .&&##&#&&    &&&&##&###&+",
"&#&#&#&&##&#  ..&#&&&&&#.   +..        .&#&&##&#.   #&##&#&#&##+",
"&&##&&#&###& .. &&&&#&&&..  &+ .   .  . ########..  &&#&&####&#+",
"&&&&&###&&##   .&##&&##&    &&+ ..      +##&##&#    &#&&#&#&###+",
"&&&###&#&### .  ##&&##&#.   #&&+.     ..+#&###&&.   #&#&##&&##&+",
"-&&&&##&###&  . #&##&##& .  ##&&+..     +##&&###... &###&###&&#+",
"-&&###&&##&&   .#&##&&##..  &##&&+ .   .+###&#&#. . ##&#&&###&#+",
"-&##&&&##&##  . ##&&#&&&    ##&#&&#.  ..+&#&&&## .  &#&&&#&&&##+",
"-#&&&#&&&&##    ###&&#&&.   &&##&###   .##&&#&#&    &&&#&&##&&#+",
"&&#&##&&###&#&##&&###&#&##&&##&##&&##&###&##&####&#&#&&####&&##+",
"&&##&&#&#&&&#&###&#&##&####&#&&&####&&&#&&#&&&#&##&&##&&##&##&#+",
"&##############################################################+",
"#+++++++++++++++++++++++++++++++++++++++++++++++++++++++++++++++",
"XXooooooooXXXXXXXXooooooooXXXXXXXXooooooooXXXXXXXXooooooooXXXXXX",
"%*=======***%@oX%*=======***%@oX%*=======***%@oX%*=======***%@oX",
"%*=======***%@oX%*=======***%@oX%*=======***%@oX%*=======***%@oX",
"%*=======***%@oX%*=======***%@oX%*=======***%@oX%*=======***%@oX",
"%*=======***%@oX%*=======***%@oX%*=======***%@oX%*=======***%@oX",
"%*=======***%@oX%*=======***%@oX%*=======***%@oX%*=======***%@oX",
"%*=======***%@oX%*=======***%@oX%*=======***%@oX%*=======***%@oX",
"%*=======***%@oX%*=======***%@oX%*=======***%@oX%*=======***%@oX",
"%*=======***%@oX%*=======***%@oX%*=======***%@oX%*=======***%@oX",
"%*=======***%@oX%*=======***%@oX%*=======***%@oX%*=======***%@oX",
"%*=======***%@oX%*=======***%@oX%*=======***%@oX%*=======***%@oX",
"%*=======***%@oX%*=======***%@oX%*=======***%@oX%*=======***%@oX",
"%*=======***%@oX%*=======***%@oX%*=======***%@oX%*=======***%@oX",
"%*=======***%@oX%*=======***%@oX%*=======***%@oX%*=======***%@oX",
"%*=======***%@oX%*=======***%@oX%*=======***%@oX%*=======***%@oX",
"%*=======***%@oX%*=======***%@oX%*=======***%@oX%*=======***%@oX",
"%*=======***%@oX%*=======***%@oX%*=======***%@oX%*=======***%@oX",
"%*=======***%@oX%*=======***%@oX%*=======***%@oX%*=======***%@oX",
"%*=======***%@oX%*=======***%@oX%*=======***%@oX%*=======***%@oX",
"ooooooooooooXXXXooooooooooooXXXXooooooooooooXXXXooooooooooooXXXX"
};
